<mxfile host="app.diagrams.net" agent="Mozilla/5.0 (Macintosh; Intel Mac OS X 10_15_7) AppleWebKit/537.36 (KHTML, like Gecko) Chrome/132.0.0.0 Safari/537.36" version="26.0.11">
  <diagram name="Page-1" id="03018318-947c-dd8e-b7a3-06fadd420f32">
    <mxGraphModel dx="1026" dy="650" grid="1" gridSize="10" guides="1" tooltips="1" connect="1" arrows="1" fold="1" page="1" pageScale="1" pageWidth="1100" pageHeight="850" background="none" math="0" shadow="0">
      <root>
        <mxCell id="0" />
        <mxCell id="1" parent="0" />
        <mxCell id="677b7b8949515195-1" value="" style="whiteSpace=wrap;html=1;rounded=0;shadow=0;labelBackgroundColor=none;strokeColor=#000000;strokeWidth=1;fillColor=none;fontFamily=Verdana;fontSize=12;fontColor=#000000;align=center;comic=1;" parent="1" vertex="1">
          <mxGeometry x="20" y="40" width="1060" height="540" as="geometry" />
        </mxCell>
        <mxCell id="677b7b8949515195-10" value="" style="whiteSpace=wrap;html=1;rounded=0;shadow=0;labelBackgroundColor=none;strokeWidth=1;fillColor=none;fontFamily=Verdana;fontSize=12;align=center;comic=1;" parent="1" vertex="1">
          <mxGeometry x="30" y="50" width="1000" height="50" as="geometry" />
        </mxCell>
        <mxCell id="q4BZEvWAXVgxHDnkbYNj-4" value="" style="shape=table;startSize=0;container=1;collapsible=0;childLayout=tableLayout;strokeColor=default;fontSize=16;fontStyle=1" parent="1" vertex="1">
          <mxGeometry x="30" y="280" width="1000" height="150" as="geometry" />
        </mxCell>
        <mxCell id="q4BZEvWAXVgxHDnkbYNj-5" value="" style="shape=tableRow;horizontal=0;startSize=0;swimlaneHead=0;swimlaneBody=0;strokeColor=inherit;top=0;left=0;bottom=0;right=0;collapsible=0;dropTarget=0;fillColor=none;points=[[0,0.5],[1,0.5]];portConstraint=eastwest;fontSize=16;" parent="q4BZEvWAXVgxHDnkbYNj-4" vertex="1">
          <mxGeometry width="1000" height="30" as="geometry" />
        </mxCell>
        <mxCell id="q4BZEvWAXVgxHDnkbYNj-6" value="&lt;b&gt;Model&lt;/b&gt;" style="shape=partialRectangle;html=1;whiteSpace=wrap;connectable=0;strokeColor=#6c8ebf;overflow=hidden;fillColor=#dae8fc;top=0;left=0;bottom=0;right=0;pointerEvents=1;fontSize=16;" parent="q4BZEvWAXVgxHDnkbYNj-5" vertex="1">
          <mxGeometry width="335" height="30" as="geometry">
            <mxRectangle width="335" height="30" as="alternateBounds" />
          </mxGeometry>
        </mxCell>
        <mxCell id="q4BZEvWAXVgxHDnkbYNj-7" value="&lt;b&gt;Manufacturer&lt;/b&gt;" style="shape=partialRectangle;html=1;whiteSpace=wrap;connectable=0;strokeColor=#6c8ebf;overflow=hidden;fillColor=#dae8fc;top=0;left=0;bottom=0;right=0;pointerEvents=1;fontSize=16;" parent="q4BZEvWAXVgxHDnkbYNj-5" vertex="1">
          <mxGeometry x="335" width="338" height="30" as="geometry">
            <mxRectangle width="338" height="30" as="alternateBounds" />
          </mxGeometry>
        </mxCell>
        <mxCell id="q4BZEvWAXVgxHDnkbYNj-20" style="shape=partialRectangle;html=1;whiteSpace=wrap;connectable=0;strokeColor=#6c8ebf;overflow=hidden;fillColor=#dae8fc;top=0;left=0;bottom=0;right=0;pointerEvents=1;fontSize=16;" parent="q4BZEvWAXVgxHDnkbYNj-5" vertex="1">
          <mxGeometry x="673" width="327" height="30" as="geometry">
            <mxRectangle width="327" height="30" as="alternateBounds" />
          </mxGeometry>
        </mxCell>
        <mxCell id="xm6PiFOeBBzuTYYJp7B9-10" style="shape=tableRow;horizontal=0;startSize=0;swimlaneHead=0;swimlaneBody=0;strokeColor=inherit;top=0;left=0;bottom=0;right=0;collapsible=0;dropTarget=0;fillColor=none;points=[[0,0.5],[1,0.5]];portConstraint=eastwest;fontSize=16;" vertex="1" parent="q4BZEvWAXVgxHDnkbYNj-4">
          <mxGeometry y="30" width="1000" height="40" as="geometry" />
        </mxCell>
        <mxCell id="xm6PiFOeBBzuTYYJp7B9-11" value="EK241YH" style="shape=partialRectangle;html=1;whiteSpace=wrap;connectable=0;strokeColor=inherit;overflow=hidden;fillColor=none;top=0;left=0;bottom=0;right=0;pointerEvents=1;fontSize=16;" vertex="1" parent="xm6PiFOeBBzuTYYJp7B9-10">
          <mxGeometry width="335" height="40" as="geometry">
            <mxRectangle width="335" height="40" as="alternateBounds" />
          </mxGeometry>
        </mxCell>
        <mxCell id="xm6PiFOeBBzuTYYJp7B9-12" value="Acer" style="shape=partialRectangle;html=1;whiteSpace=wrap;connectable=0;strokeColor=inherit;overflow=hidden;fillColor=none;top=0;left=0;bottom=0;right=0;pointerEvents=1;fontSize=16;" vertex="1" parent="xm6PiFOeBBzuTYYJp7B9-10">
          <mxGeometry x="335" width="338" height="40" as="geometry">
            <mxRectangle width="338" height="40" as="alternateBounds" />
          </mxGeometry>
        </mxCell>
        <mxCell id="xm6PiFOeBBzuTYYJp7B9-13" value="&lt;font style=&quot;color: light-dark(rgb(0, 0, 0), rgb(51, 153, 255));&quot;&gt;Request&lt;/font&gt;" style="shape=partialRectangle;html=1;whiteSpace=wrap;connectable=0;strokeColor=inherit;overflow=hidden;fillColor=none;top=0;left=0;bottom=0;right=0;pointerEvents=1;fontSize=16;" vertex="1" parent="xm6PiFOeBBzuTYYJp7B9-10">
          <mxGeometry x="673" width="327" height="40" as="geometry">
            <mxRectangle width="327" height="40" as="alternateBounds" />
          </mxGeometry>
        </mxCell>
        <mxCell id="q4BZEvWAXVgxHDnkbYNj-9" value="" style="shape=tableRow;horizontal=0;startSize=0;swimlaneHead=0;swimlaneBody=0;strokeColor=inherit;top=0;left=0;bottom=0;right=0;collapsible=0;dropTarget=0;fillColor=none;points=[[0,0.5],[1,0.5]];portConstraint=eastwest;fontSize=16;" parent="q4BZEvWAXVgxHDnkbYNj-4" vertex="1">
          <mxGeometry y="70" width="1000" height="40" as="geometry" />
        </mxCell>
        <mxCell id="q4BZEvWAXVgxHDnkbYNj-10" value="SE2422HX" style="shape=partialRectangle;html=1;whiteSpace=wrap;connectable=0;strokeColor=inherit;overflow=hidden;fillColor=none;top=0;left=0;bottom=0;right=0;pointerEvents=1;fontSize=16;" parent="q4BZEvWAXVgxHDnkbYNj-9" vertex="1">
          <mxGeometry width="335" height="40" as="geometry">
            <mxRectangle width="335" height="40" as="alternateBounds" />
          </mxGeometry>
        </mxCell>
        <mxCell id="q4BZEvWAXVgxHDnkbYNj-11" value="Dell" style="shape=partialRectangle;html=1;whiteSpace=wrap;connectable=0;strokeColor=inherit;overflow=hidden;fillColor=none;top=0;left=0;bottom=0;right=0;pointerEvents=1;fontSize=16;" parent="q4BZEvWAXVgxHDnkbYNj-9" vertex="1">
          <mxGeometry x="335" width="338" height="40" as="geometry">
            <mxRectangle width="338" height="40" as="alternateBounds" />
          </mxGeometry>
        </mxCell>
        <mxCell id="q4BZEvWAXVgxHDnkbYNj-21" value="&lt;font style=&quot;color: light-dark(rgb(126, 166, 224), rgb(51, 153, 255));&quot;&gt;Request&lt;/font&gt;" style="shape=partialRectangle;html=1;whiteSpace=wrap;connectable=0;strokeColor=inherit;overflow=hidden;fillColor=none;top=0;left=0;bottom=0;right=0;pointerEvents=1;fontSize=16;" parent="q4BZEvWAXVgxHDnkbYNj-9" vertex="1">
          <mxGeometry x="673" width="327" height="40" as="geometry">
            <mxRectangle width="327" height="40" as="alternateBounds" />
          </mxGeometry>
        </mxCell>
        <mxCell id="q4BZEvWAXVgxHDnkbYNj-13" value="" style="shape=tableRow;horizontal=0;startSize=0;swimlaneHead=0;swimlaneBody=0;strokeColor=inherit;top=0;left=0;bottom=0;right=0;collapsible=0;dropTarget=0;fillColor=none;points=[[0,0.5],[1,0.5]];portConstraint=eastwest;fontSize=16;" parent="q4BZEvWAXVgxHDnkbYNj-4" vertex="1">
          <mxGeometry y="110" width="1000" height="40" as="geometry" />
        </mxCell>
        <mxCell id="q4BZEvWAXVgxHDnkbYNj-14" value="ODYS XP 32 PRO" style="shape=partialRectangle;html=1;whiteSpace=wrap;connectable=0;strokeColor=inherit;overflow=hidden;fillColor=none;top=0;left=0;bottom=0;right=0;pointerEvents=1;fontSize=16;" parent="q4BZEvWAXVgxHDnkbYNj-13" vertex="1">
          <mxGeometry width="335" height="40" as="geometry">
            <mxRectangle width="335" height="40" as="alternateBounds" />
          </mxGeometry>
        </mxCell>
        <mxCell id="q4BZEvWAXVgxHDnkbYNj-15" value="Dell" style="shape=partialRectangle;html=1;whiteSpace=wrap;connectable=0;strokeColor=inherit;overflow=hidden;fillColor=none;top=0;left=0;bottom=0;right=0;pointerEvents=1;fontSize=16;" parent="q4BZEvWAXVgxHDnkbYNj-13" vertex="1">
          <mxGeometry x="335" width="338" height="40" as="geometry">
            <mxRectangle width="338" height="40" as="alternateBounds" />
          </mxGeometry>
        </mxCell>
        <mxCell id="q4BZEvWAXVgxHDnkbYNj-22" value="&lt;span&gt;&lt;font style=&quot;color: light-dark(rgb(126, 166, 224), rgb(51, 153, 255));&quot;&gt;Request&lt;/font&gt;&lt;/span&gt;" style="shape=partialRectangle;html=1;whiteSpace=wrap;connectable=0;strokeColor=inherit;overflow=hidden;fillColor=none;top=0;left=0;bottom=0;right=0;pointerEvents=1;fontSize=16;" parent="q4BZEvWAXVgxHDnkbYNj-13" vertex="1">
          <mxGeometry x="673" width="327" height="40" as="geometry">
            <mxRectangle width="327" height="40" as="alternateBounds" />
          </mxGeometry>
        </mxCell>
        <mxCell id="q4BZEvWAXVgxHDnkbYNj-112" value="Any" style="html=1;shadow=0;dashed=0;shape=mxgraph.bootstrap.rrect;rSize=5;strokeColor=none;strokeWidth=1;fillColor=#6C767D;fontColor=#ffffff;whiteSpace=wrap;align=right;verticalAlign=middle;fontStyle=0;fontSize=14;spacingRight=20;" parent="1" vertex="1">
          <mxGeometry x="80" y="60" width="120" height="30" as="geometry" />
        </mxCell>
        <mxCell id="q4BZEvWAXVgxHDnkbYNj-113" value="" style="shape=triangle;direction=south;fillColor=#ffffff;strokeColor=none;perimeter=none;" parent="q4BZEvWAXVgxHDnkbYNj-112" vertex="1">
          <mxGeometry x="1" y="0.5" width="10" height="5" relative="1" as="geometry">
            <mxPoint x="-17" y="-2.5" as="offset" />
          </mxGeometry>
        </mxCell>
        <mxCell id="q4BZEvWAXVgxHDnkbYNj-114" value="Type" style="text;html=1;points=[];align=left;verticalAlign=top;spacingTop=-4;fontSize=14;fontFamily=Verdana" parent="1" vertex="1">
          <mxGeometry x="40" y="60" width="40" height="20" as="geometry" />
        </mxCell>
        <mxCell id="q4BZEvWAXVgxHDnkbYNj-130" value="Apply" style="rounded=1;fillColor=#0057D8;strokeColor=none;html=1;whiteSpace=wrap;fontColor=#ffffff;align=center;verticalAlign=middle;fontStyle=0;fontSize=12;sketch=0;" parent="1" vertex="1">
          <mxGeometry x="230" y="57" width="86" height="33" as="geometry" />
        </mxCell>
        <mxCell id="q4BZEvWAXVgxHDnkbYNj-132" value="" style="verticalLabelPosition=bottom;shadow=0;dashed=0;align=center;html=1;verticalAlign=top;strokeWidth=1;shape=mxgraph.mockup.navigation.scrollBar;strokeColor=#999999;barPos=67.652;fillColor2=#99ddff;strokeColor2=none;direction=north;" parent="1" vertex="1">
          <mxGeometry x="1050" y="60" width="20" height="510" as="geometry" />
        </mxCell>
        <mxCell id="zX-MKMj06BqSPDNbv460-1" value="&lt;font style=&quot;font-size: 18px;&quot;&gt;companyitassets/assets/request&lt;/font&gt;" style="html=1;strokeWidth=1;shadow=0;dashed=0;shape=mxgraph.ios7ui.url;fillColor=#e0e0e0;strokeColor=#c0c0c0;buttonText=;strokeColor2=#222222;fontColor=#222222;fontSize=8;spacingTop=2;align=center;whiteSpace=wrap;" parent="1" vertex="1">
          <mxGeometry x="20" width="1050" height="32.5" as="geometry" />
        </mxCell>
        <mxCell id="xm6PiFOeBBzuTYYJp7B9-1" value="Monitor" style="text;html=1;align=left;verticalAlign=middle;whiteSpace=wrap;rounded=0;fontSize=18;fillColor=#dae8fc;strokeColor=#6c8ebf;" vertex="1" parent="1">
          <mxGeometry x="30" y="250" width="1000" height="30" as="geometry" />
        </mxCell>
        <mxCell id="xm6PiFOeBBzuTYYJp7B9-14" value="Keyboard" style="text;html=1;align=left;verticalAlign=middle;whiteSpace=wrap;rounded=0;fontSize=18;fillColor=#dae8fc;strokeColor=#6c8ebf;" vertex="1" parent="1">
          <mxGeometry x="30" y="100" width="1000" height="30" as="geometry" />
        </mxCell>
        <mxCell id="xm6PiFOeBBzuTYYJp7B9-15" value="" style="shape=table;startSize=0;container=1;collapsible=0;childLayout=tableLayout;strokeColor=default;fontSize=16;fontStyle=1" vertex="1" parent="1">
          <mxGeometry x="30" y="130" width="1000" height="110" as="geometry" />
        </mxCell>
        <mxCell id="xm6PiFOeBBzuTYYJp7B9-16" value="" style="shape=tableRow;horizontal=0;startSize=0;swimlaneHead=0;swimlaneBody=0;strokeColor=inherit;top=0;left=0;bottom=0;right=0;collapsible=0;dropTarget=0;fillColor=none;points=[[0,0.5],[1,0.5]];portConstraint=eastwest;fontSize=16;" vertex="1" parent="xm6PiFOeBBzuTYYJp7B9-15">
          <mxGeometry width="1000" height="30" as="geometry" />
        </mxCell>
        <mxCell id="xm6PiFOeBBzuTYYJp7B9-17" value="&lt;b&gt;Model&lt;/b&gt;" style="shape=partialRectangle;html=1;whiteSpace=wrap;connectable=0;strokeColor=#6c8ebf;overflow=hidden;fillColor=#dae8fc;top=0;left=0;bottom=0;right=0;pointerEvents=1;fontSize=16;" vertex="1" parent="xm6PiFOeBBzuTYYJp7B9-16">
          <mxGeometry width="339" height="30" as="geometry">
            <mxRectangle width="339" height="30" as="alternateBounds" />
          </mxGeometry>
        </mxCell>
        <mxCell id="xm6PiFOeBBzuTYYJp7B9-18" value="&lt;b&gt;Manufacturer&lt;/b&gt;" style="shape=partialRectangle;html=1;whiteSpace=wrap;connectable=0;strokeColor=#6c8ebf;overflow=hidden;fillColor=#dae8fc;top=0;left=0;bottom=0;right=0;pointerEvents=1;fontSize=16;" vertex="1" parent="xm6PiFOeBBzuTYYJp7B9-16">
          <mxGeometry x="339" width="337" height="30" as="geometry">
            <mxRectangle width="337" height="30" as="alternateBounds" />
          </mxGeometry>
        </mxCell>
        <mxCell id="xm6PiFOeBBzuTYYJp7B9-19" style="shape=partialRectangle;html=1;whiteSpace=wrap;connectable=0;strokeColor=#6c8ebf;overflow=hidden;fillColor=#dae8fc;top=0;left=0;bottom=0;right=0;pointerEvents=1;fontSize=16;" vertex="1" parent="xm6PiFOeBBzuTYYJp7B9-16">
          <mxGeometry x="676" width="324" height="30" as="geometry">
            <mxRectangle width="324" height="30" as="alternateBounds" />
          </mxGeometry>
        </mxCell>
        <mxCell id="xm6PiFOeBBzuTYYJp7B9-32" style="shape=tableRow;horizontal=0;startSize=0;swimlaneHead=0;swimlaneBody=0;strokeColor=inherit;top=0;left=0;bottom=0;right=0;collapsible=0;dropTarget=0;fillColor=none;points=[[0,0.5],[1,0.5]];portConstraint=eastwest;fontSize=16;" vertex="1" parent="xm6PiFOeBBzuTYYJp7B9-15">
          <mxGeometry y="30" width="1000" height="40" as="geometry" />
        </mxCell>
        <mxCell id="xm6PiFOeBBzuTYYJp7B9-33" value="DC 2000" style="shape=partialRectangle;html=1;whiteSpace=wrap;connectable=0;strokeColor=inherit;overflow=hidden;fillColor=none;top=0;left=0;bottom=0;right=0;pointerEvents=1;fontSize=16;" vertex="1" parent="xm6PiFOeBBzuTYYJp7B9-32">
          <mxGeometry width="339" height="40" as="geometry">
            <mxRectangle width="339" height="40" as="alternateBounds" />
          </mxGeometry>
        </mxCell>
        <mxCell id="xm6PiFOeBBzuTYYJp7B9-34" value="Cherry" style="shape=partialRectangle;html=1;whiteSpace=wrap;connectable=0;strokeColor=inherit;overflow=hidden;fillColor=none;top=0;left=0;bottom=0;right=0;pointerEvents=1;fontSize=16;" vertex="1" parent="xm6PiFOeBBzuTYYJp7B9-32">
          <mxGeometry x="339" width="337" height="40" as="geometry">
            <mxRectangle width="337" height="40" as="alternateBounds" />
          </mxGeometry>
        </mxCell>
        <mxCell id="xm6PiFOeBBzuTYYJp7B9-35" value="&lt;span&gt;&lt;font style=&quot;color: light-dark(rgb(51, 153, 255), rgb(51, 153, 255));&quot;&gt;Request&lt;/font&gt;&lt;/span&gt;" style="shape=partialRectangle;html=1;whiteSpace=wrap;connectable=0;strokeColor=inherit;overflow=hidden;fillColor=none;top=0;left=0;bottom=0;right=0;pointerEvents=1;fontSize=16;" vertex="1" parent="xm6PiFOeBBzuTYYJp7B9-32">
          <mxGeometry x="676" width="324" height="40" as="geometry">
            <mxRectangle width="324" height="40" as="alternateBounds" />
          </mxGeometry>
        </mxCell>
        <mxCell id="xm6PiFOeBBzuTYYJp7B9-20" style="shape=tableRow;horizontal=0;startSize=0;swimlaneHead=0;swimlaneBody=0;strokeColor=inherit;top=0;left=0;bottom=0;right=0;collapsible=0;dropTarget=0;fillColor=none;points=[[0,0.5],[1,0.5]];portConstraint=eastwest;fontSize=16;" vertex="1" parent="xm6PiFOeBBzuTYYJp7B9-15">
          <mxGeometry y="70" width="1000" height="40" as="geometry" />
        </mxCell>
        <mxCell id="xm6PiFOeBBzuTYYJp7B9-21" value="KC 600 SLIM" style="shape=partialRectangle;html=1;whiteSpace=wrap;connectable=0;strokeColor=inherit;overflow=hidden;fillColor=none;top=0;left=0;bottom=0;right=0;pointerEvents=1;fontSize=16;" vertex="1" parent="xm6PiFOeBBzuTYYJp7B9-20">
          <mxGeometry width="339" height="40" as="geometry">
            <mxRectangle width="339" height="40" as="alternateBounds" />
          </mxGeometry>
        </mxCell>
        <mxCell id="xm6PiFOeBBzuTYYJp7B9-22" value="Cherry" style="shape=partialRectangle;html=1;whiteSpace=wrap;connectable=0;strokeColor=inherit;overflow=hidden;fillColor=none;top=0;left=0;bottom=0;right=0;pointerEvents=1;fontSize=16;" vertex="1" parent="xm6PiFOeBBzuTYYJp7B9-20">
          <mxGeometry x="339" width="337" height="40" as="geometry">
            <mxRectangle width="337" height="40" as="alternateBounds" />
          </mxGeometry>
        </mxCell>
        <mxCell id="xm6PiFOeBBzuTYYJp7B9-23" value="&lt;font style=&quot;color: light-dark(rgb(0, 0, 0), rgb(51, 153, 255));&quot;&gt;Request&lt;/font&gt;" style="shape=partialRectangle;html=1;whiteSpace=wrap;connectable=0;strokeColor=inherit;overflow=hidden;fillColor=none;top=0;left=0;bottom=0;right=0;pointerEvents=1;fontSize=16;" vertex="1" parent="xm6PiFOeBBzuTYYJp7B9-20">
          <mxGeometry x="676" width="324" height="40" as="geometry">
            <mxRectangle width="324" height="40" as="alternateBounds" />
          </mxGeometry>
        </mxCell>
        <mxCell id="xm6PiFOeBBzuTYYJp7B9-36" value="Printer" style="text;html=1;align=left;verticalAlign=middle;whiteSpace=wrap;rounded=0;fontSize=18;fillColor=#dae8fc;strokeColor=#6c8ebf;" vertex="1" parent="1">
          <mxGeometry x="30" y="440" width="1000" height="30" as="geometry" />
        </mxCell>
        <mxCell id="xm6PiFOeBBzuTYYJp7B9-37" value="" style="shape=table;startSize=0;container=1;collapsible=0;childLayout=tableLayout;strokeColor=default;fontSize=16;fontStyle=1" vertex="1" parent="1">
          <mxGeometry x="30" y="470" width="1000" height="110" as="geometry" />
        </mxCell>
        <mxCell id="xm6PiFOeBBzuTYYJp7B9-38" value="" style="shape=tableRow;horizontal=0;startSize=0;swimlaneHead=0;swimlaneBody=0;strokeColor=inherit;top=0;left=0;bottom=0;right=0;collapsible=0;dropTarget=0;fillColor=none;points=[[0,0.5],[1,0.5]];portConstraint=eastwest;fontSize=16;" vertex="1" parent="xm6PiFOeBBzuTYYJp7B9-37">
          <mxGeometry width="1000" height="30" as="geometry" />
        </mxCell>
        <mxCell id="xm6PiFOeBBzuTYYJp7B9-39" value="&lt;b&gt;Model&lt;/b&gt;" style="shape=partialRectangle;html=1;whiteSpace=wrap;connectable=0;strokeColor=#6c8ebf;overflow=hidden;fillColor=#dae8fc;top=0;left=0;bottom=0;right=0;pointerEvents=1;fontSize=16;" vertex="1" parent="xm6PiFOeBBzuTYYJp7B9-38">
          <mxGeometry width="339" height="30" as="geometry">
            <mxRectangle width="339" height="30" as="alternateBounds" />
          </mxGeometry>
        </mxCell>
        <mxCell id="xm6PiFOeBBzuTYYJp7B9-40" value="&lt;b&gt;Manufacturer&lt;/b&gt;" style="shape=partialRectangle;html=1;whiteSpace=wrap;connectable=0;strokeColor=#6c8ebf;overflow=hidden;fillColor=#dae8fc;top=0;left=0;bottom=0;right=0;pointerEvents=1;fontSize=16;" vertex="1" parent="xm6PiFOeBBzuTYYJp7B9-38">
          <mxGeometry x="339" width="337" height="30" as="geometry">
            <mxRectangle width="337" height="30" as="alternateBounds" />
          </mxGeometry>
        </mxCell>
        <mxCell id="xm6PiFOeBBzuTYYJp7B9-41" style="shape=partialRectangle;html=1;whiteSpace=wrap;connectable=0;strokeColor=#6c8ebf;overflow=hidden;fillColor=#dae8fc;top=0;left=0;bottom=0;right=0;pointerEvents=1;fontSize=16;" vertex="1" parent="xm6PiFOeBBzuTYYJp7B9-38">
          <mxGeometry x="676" width="324" height="30" as="geometry">
            <mxRectangle width="324" height="30" as="alternateBounds" />
          </mxGeometry>
        </mxCell>
        <mxCell id="xm6PiFOeBBzuTYYJp7B9-54" style="shape=tableRow;horizontal=0;startSize=0;swimlaneHead=0;swimlaneBody=0;strokeColor=inherit;top=0;left=0;bottom=0;right=0;collapsible=0;dropTarget=0;fillColor=none;points=[[0,0.5],[1,0.5]];portConstraint=eastwest;fontSize=16;" vertex="1" parent="xm6PiFOeBBzuTYYJp7B9-37">
          <mxGeometry y="30" width="1000" height="40" as="geometry" />
        </mxCell>
        <mxCell id="xm6PiFOeBBzuTYYJp7B9-55" value="MFC-L8690CDW" style="shape=partialRectangle;html=1;whiteSpace=wrap;connectable=0;strokeColor=inherit;overflow=hidden;fillColor=none;top=0;left=0;bottom=0;right=0;pointerEvents=1;fontSize=16;" vertex="1" parent="xm6PiFOeBBzuTYYJp7B9-54">
          <mxGeometry width="339" height="40" as="geometry">
            <mxRectangle width="339" height="40" as="alternateBounds" />
          </mxGeometry>
        </mxCell>
        <mxCell id="xm6PiFOeBBzuTYYJp7B9-56" value="Brother" style="shape=partialRectangle;html=1;whiteSpace=wrap;connectable=0;strokeColor=inherit;overflow=hidden;fillColor=none;top=0;left=0;bottom=0;right=0;pointerEvents=1;fontSize=16;" vertex="1" parent="xm6PiFOeBBzuTYYJp7B9-54">
          <mxGeometry x="339" width="337" height="40" as="geometry">
            <mxRectangle width="337" height="40" as="alternateBounds" />
          </mxGeometry>
        </mxCell>
        <mxCell id="xm6PiFOeBBzuTYYJp7B9-57" value="&lt;font style=&quot;color: light-dark(rgb(0, 0, 0), rgb(51, 153, 255));&quot;&gt;Request&lt;/font&gt;" style="shape=partialRectangle;html=1;whiteSpace=wrap;connectable=0;strokeColor=inherit;overflow=hidden;fillColor=none;top=0;left=0;bottom=0;right=0;pointerEvents=1;fontSize=16;" vertex="1" parent="xm6PiFOeBBzuTYYJp7B9-54">
          <mxGeometry x="676" width="324" height="40" as="geometry">
            <mxRectangle width="324" height="40" as="alternateBounds" />
          </mxGeometry>
        </mxCell>
        <mxCell id="xm6PiFOeBBzuTYYJp7B9-42" style="shape=tableRow;horizontal=0;startSize=0;swimlaneHead=0;swimlaneBody=0;strokeColor=inherit;top=0;left=0;bottom=0;right=0;collapsible=0;dropTarget=0;fillColor=none;points=[[0,0.5],[1,0.5]];portConstraint=eastwest;fontSize=16;" vertex="1" parent="xm6PiFOeBBzuTYYJp7B9-37">
          <mxGeometry y="70" width="1000" height="40" as="geometry" />
        </mxCell>
        <mxCell id="xm6PiFOeBBzuTYYJp7B9-43" value="Laser Jet Pro MFP 4102fdw" style="shape=partialRectangle;html=1;whiteSpace=wrap;connectable=0;strokeColor=inherit;overflow=hidden;fillColor=none;top=0;left=0;bottom=0;right=0;pointerEvents=1;fontSize=16;" vertex="1" parent="xm6PiFOeBBzuTYYJp7B9-42">
          <mxGeometry width="339" height="40" as="geometry">
            <mxRectangle width="339" height="40" as="alternateBounds" />
          </mxGeometry>
        </mxCell>
        <mxCell id="xm6PiFOeBBzuTYYJp7B9-44" value="HP" style="shape=partialRectangle;html=1;whiteSpace=wrap;connectable=0;strokeColor=inherit;overflow=hidden;fillColor=none;top=0;left=0;bottom=0;right=0;pointerEvents=1;fontSize=16;" vertex="1" parent="xm6PiFOeBBzuTYYJp7B9-42">
          <mxGeometry x="339" width="337" height="40" as="geometry">
            <mxRectangle width="337" height="40" as="alternateBounds" />
          </mxGeometry>
        </mxCell>
        <mxCell id="xm6PiFOeBBzuTYYJp7B9-45" value="&lt;span&gt;&lt;font style=&quot;color: light-dark(rgb(51, 153, 255), rgb(51, 153, 255));&quot;&gt;Request&lt;/font&gt;&lt;/span&gt;" style="shape=partialRectangle;html=1;whiteSpace=wrap;connectable=0;strokeColor=inherit;overflow=hidden;fillColor=none;top=0;left=0;bottom=0;right=0;pointerEvents=1;fontSize=16;" vertex="1" parent="xm6PiFOeBBzuTYYJp7B9-42">
          <mxGeometry x="676" width="324" height="40" as="geometry">
            <mxRectangle width="324" height="40" as="alternateBounds" />
          </mxGeometry>
        </mxCell>
      </root>
    </mxGraphModel>
  </diagram>
</mxfile>
